<svg width="25" height="24" viewBox="0 0 25 24" fill="none" xmlns="http://www.w3.org/2000/svg">
<path d="M17.024 2H8.64398C5.00398 2 2.83398 4.17 2.83398 7.81V16.18C2.83398 19.83 5.00398 22 8.64398 22H17.014C20.654 22 22.824 19.83 22.824 16.19V7.81C22.834 4.17 20.664 2 17.024 2ZM9.33398 6.38C10.364 6.38 11.214 7.22 11.214 8.26C11.214 9.3 10.374 10.14 9.33398 10.14C8.29398 10.14 7.45398 9.28 7.45398 8.25C7.45398 7.22 8.30398 6.38 9.33398 6.38ZM12.834 19.08C10.144 19.08 7.95398 16.89 7.95398 14.2C7.95398 13.5 8.52398 12.92 9.22398 12.92H16.424C17.124 12.92 17.694 13.49 17.694 14.2C17.714 16.89 15.524 19.08 12.834 19.08ZM16.334 10.12C15.304 10.12 14.454 9.28 14.454 8.24C14.454 7.2 15.294 6.36 16.334 6.36C17.374 6.36 18.214 7.2 18.214 8.24C18.214 9.28 17.364 10.12 16.334 10.12Z" fill="#FDFDFD"/>
</svg>
