<svg width="20" height="20" viewBox="0 0 20 20" fill="none" xmlns="http://www.w3.org/2000/svg">
<path d="M9.14323 2.2571C9.53189 1.61128 10.4682 1.61128 10.8568 2.2571L12.7989 5.4841C12.9385 5.71611 13.1663 5.88158 13.4301 5.94268L17.0992 6.79246C17.8336 6.96253 18.1229 7.853 17.6288 8.42221L15.1598 11.2664C14.9823 11.4709 14.8953 11.7386 14.9188 12.0084L15.2444 15.7606C15.3096 16.5115 14.5521 17.0619 13.8581 16.7678L10.3901 15.2986C10.1408 15.193 9.85928 15.193 9.60995 15.2986L6.14203 16.7678C5.44799 17.0619 4.69051 16.5115 4.75568 15.7606L5.08132 12.0084C5.10473 11.7386 5.01774 11.4709 4.84023 11.2664L2.37129 8.42221C1.87719 7.85301 2.16652 6.96253 2.90083 6.79247L6.57001 5.94268C6.83382 5.88158 7.06157 5.71611 7.20119 5.4841L9.14323 2.2571Z" fill="#E4A802" stroke="#E4A802" stroke-width="1.25"/>
</svg>
