<svg width="25" height="24" viewBox="0 0 25 24" fill="none" xmlns="http://www.w3.org/2000/svg">
<path d="M21.65 6.17C21.24 5.95 20.38 5.72 19.21 6.54L17.74 7.58C17.63 4.47 16.28 3.25 13 3.25H7C3.58 3.25 2.25 4.58 2.25 8V16C2.25 18.3 3.5 20.75 7 20.75H13C16.28 20.75 17.63 19.53 17.74 16.42L19.21 17.46C19.83 17.9 20.37 18.04 20.8 18.04C21.17 18.04 21.46 17.93 21.65 17.83C22.06 17.62 22.75 17.05 22.75 15.62V8.38C22.75 6.95 22.06 6.38 21.65 6.17ZM11.5 11.38C10.47 11.38 9.62 10.54 9.62 9.5C9.62 8.46 10.47 7.62 11.5 7.62C12.53 7.62 13.38 8.46 13.38 9.5C13.38 10.54 12.53 11.38 11.5 11.38Z" fill="#FDFDFD"/>
</svg>
